<?xml version="1.0" encoding="utf-8"?>
<!-- Generator: Adobe Illustrator 27.1.1, SVG Export Plug-In . SVG Version: 6.00 Build 0)  -->
<svg version="1.1" id="Icon__x28_Live_x29_" xmlns="http://www.w3.org/2000/svg" xmlns:xlink="http://www.w3.org/1999/xlink"
	 x="0px" y="0px" viewBox="0 0 32 32" style="enable-background:new 0 0 32 32;" xml:space="preserve">
<style type="text/css">
	.st0{fill:#009FDB;}
</style>
<path class="st0" d="M16,31l-0.4-0.2c-8.5-3.7-14-12-14-21.3c0-1.1,0.1-2.2,0.2-3.2l0.1-0.4l0.3-0.2c4-3,8.8-4.5,13.8-4.5
	s9.7,1.5,13.7,4.5L30,5.9l0.1,0.4c0.2,1.1,0.2,2.2,0.2,3.3c0,9.2-5.5,17.6-14,21.3L16,31z M3.8,7C3.7,7.8,3.6,8.6,3.6,9.5
	c0,8.3,4.8,15.8,12.4,19.3c7.5-3.5,12.4-11,12.4-19.3c0-0.9-0.1-1.7-0.2-2.6C24.6,4.4,20.4,3.1,16,3.1S7.4,4.4,3.8,7z M22.4,11.4
	L20.9,10l-6,6l-2.8-2.8l-1.4,1.4l4.2,4.2L22.4,11.4z"/>
</svg>
