<?xml version="1.0" encoding="utf-8"?>
<!-- Generator: Adobe Illustrator 27.1.1, SVG Export Plug-In . SVG Version: 6.00 Build 0)  -->
<svg version="1.1" id="Icon__x28_Outline_x29_" xmlns="http://www.w3.org/2000/svg" xmlns:xlink="http://www.w3.org/1999/xlink"
	 x="0px" y="0px" viewBox="0 0 32 32" style="enable-background:new 0 0 32 32;" xml:space="preserve">
<style type="text/css">
	.st0{fill:#009FDB;}
</style>
<path class="st0" d="M16,1C7.7,1,1,7.7,1,16s6.7,15,15,15s15-6.7,15-15S24.3,1,16,1z M28.9,15h-6c-0.1-2-0.3-3.8-0.6-5.4
	c1.2-0.6,2.3-1.3,3.4-2.2C27.5,9.5,28.7,12.1,28.9,15z M21.9,24.4c0.9,0.4,1.7,1,2.4,1.6c-1.2,1-2.7,1.8-4.2,2.3
	C20.8,27.3,21.4,26,21.9,24.4z M20.5,21.7c-2.9-0.9-6.1-0.9-8.9,0c-0.3-1.4-0.5-3-0.5-4.7h10C20.9,18.7,20.7,20.3,20.5,21.7z
	 M11.9,28.3c-1.6-0.5-3-1.3-4.2-2.3c0.7-0.6,1.6-1.2,2.4-1.6C10.6,26,11.2,27.3,11.9,28.3z M10.1,7.6C9.3,7.2,8.4,6.6,7.7,6
	c1.2-1,2.7-1.8,4.2-2.3C11.2,4.7,10.6,6,10.1,7.6z M11,15c0.1-1.7,0.2-3.3,0.5-4.7c1.5,0.5,3,0.7,4.5,0.7s3-0.2,4.5-0.7
	c0.3,1.4,0.5,3,0.5,4.7H11z M20.1,3.7c1.6,0.5,3,1.3,4.2,2.3c-0.7,0.6-1.6,1.2-2.4,1.6C21.4,6,20.8,4.7,20.1,3.7z M20,8.4
	c-2.6,0.8-5.4,0.8-8,0C13,5,14.5,3,16,3S19,5,20,8.4z M6.3,7.4c1,0.9,2.1,1.6,3.4,2.2C9.3,11.2,9.1,13,9,15H3
	C3.3,12.1,4.5,9.5,6.3,7.4z M3.1,17h6c0.1,2,0.3,3.8,0.6,5.4c-1.2,0.6-2.3,1.3-3.4,2.2C4.5,22.5,3.3,19.9,3.1,17z M12,23.6
	c2.6-0.8,5.4-0.8,8,0C19,27,17.5,29,16,29S13,27,12,23.6z M25.7,24.6c-1-0.9-2.1-1.6-3.4-2.2c0.3-1.7,0.6-3.5,0.6-5.4h6
	C28.8,19.9,27.5,22.5,25.7,24.6z"/>
</svg>
