<?xml version="1.0" encoding="utf-8"?>
<!-- Generator: Adobe Illustrator 27.1.1, SVG Export Plug-In . SVG Version: 6.00 Build 0)  -->
<svg version="1.1" id="Icon__x28_Outlined_x29_" xmlns="http://www.w3.org/2000/svg" xmlns:xlink="http://www.w3.org/1999/xlink"
	 x="0px" y="0px" viewBox="0 0 32 32" style="enable-background:new 0 0 32 32;" xml:space="preserve">
<style type="text/css">
	.st0{fill:#009FDB;}
</style>
<path class="st0" d="M16.2,7.8l-1.4,1.4c-0.4-0.4-1-0.4-1.4,0L12,7.8C13.1,6.7,15.1,6.7,16.2,7.8z M17.6,6.4L19,5
	c-2.7-2.7-7.2-2.7-9.9,0l1.4,1.4C12.5,4.5,15.7,4.5,17.6,6.4z M30,21.8V24c0,1.7-1.3,3-3,3h-0.2c-0.4,1.4-1.8,2.5-3.3,2.5
	s-2.9-1.1-3.3-2.5h-8.3c-0.4,1.4-1.8,2.5-3.3,2.5S5.6,28.4,5.2,27H5c-1.7,0-3-1.3-3-3v-3c0-1.7,1.3-3,3-3l0.3,0l1.4-4
	c0.4-1.2,1.6-2,2.9-2h9.2c1.2,0,2.2,0.6,2.7,1.7l2,4.4l3.8,0.6C28.9,18.9,30,20.2,30,21.8z M7.4,18l13.9,0l-1.6-3.4
	c-0.2-0.3-0.5-0.6-0.9-0.6H9.6c-0.4,0-0.8,0.3-1,0.7L7.4,18z M10,26c0-0.8-0.7-1.5-1.5-1.5S7,25.2,7,26s0.7,1.5,1.5,1.5
	S10,26.8,10,26z M25,26c0-0.8-0.7-1.5-1.5-1.5S22,25.2,22,26s0.7,1.5,1.5,1.5S25,26.8,25,26z M28,21.8c0-0.5-0.4-1-0.9-1.1L22.9,20
	H5c-0.6,0-1,0.4-1,1v3c0,0.6,0.4,1,1,1h0.2c0.4-1.4,1.8-2.5,3.3-2.5s2.9,1.1,3.3,2.5h8.3c0.4-1.4,1.8-2.5,3.3-2.5s2.9,1.1,3.3,2.5
	H27c0.6,0,1-0.4,1-1C28,24,28,21.8,28,21.8z"/>
</svg>
