<svg xmlns="http://www.w3.org/2000/svg" viewBox="0 0 200 45" fill="none">
  <defs>
    <linearGradient id="logo-grad" x1="0%" y1="0%" x2="100%" y2="100%">
      <stop offset="0%" stop-color="#102A43"/>
      <stop offset="100%" stop-color="#14B8C4"/>
    </linearGradient>
  </defs>
  <path d="M12 22.5c0-7.5 5.5-13 13-13 4.5 0 8.2 2.2 10.3 5.5l-3.8 2.2c-1.4-2.1-3.8-3.5-6.5-3.5-5 0-8.5 3.8-8.5 8.8s3.5 8.8 8.5 8.8c2.7 0 5.1-1.4 6.5-3.5l3.8 2.2c-2.1 3.3-5.8 5.5-10.3 5.5-7.5 0-13-5.5-13-13z" fill="currentColor"/>
  <circle cx="25" cy="22.5" r="3.5" fill="url(#logo-grad)"/>
  <text x="46" y="30" font-family="Inter, sans-serif" font-size="22" font-weight="700" fill="currentColor" letter-spacing="-0.5">Cognify</text>
</svg>
