<?xml version="1.0" encoding="UTF-8"?>
<svg id="Layer_1" data-name="Layer 1" xmlns="http://www.w3.org/2000/svg" viewBox="0 0 1663.8 256">
  <defs>
    <style>
      .cls-1, .cls-2 {
        stroke-width: 0px;
      }

      .cls-2 {
        fill: #009fdb;
      }
    </style>
  </defs>
  <g>
    <path class="cls-1" d="M492.15,204.92c2.49,0,4.22-1.73,4.22-4.22v-123.63h41.98c2.49,0,4.21-1.72,4.21-4.22v-17.05c0-2.5-1.72-4.22-4.21-4.22h-111.75c-2.49,0-4.21,1.73-4.21,4.22v17.05c0,2.49,1.72,4.22,4.21,4.22h41.98v123.63c0,2.49,1.73,4.22,4.22,4.22h19.37ZM683.43,199.56c2.49,2.68.96,5.37-2.11,5.37h-24.34c-3.26,0-4.99-.77-7.1-3.26l-14.56-16.09c-9.77,13.03-23.39,22.81-46,22.81-27.99,0-50.03-16.86-50.03-45.81,0-22.24,11.88-34.12,29.9-44.09-8.81-10.16-12.84-20.89-12.84-30.28,0-23.77,16.68-40.06,41.78-40.06s41.4,15.15,41.4,37.57c0,19.16-13.8,29.89-28.37,37.95l21.47,23.2,12.08-21.09c1.53-2.49,3.26-3.45,6.32-3.45h18.59c3.07,0,4.8,2.12,2.89,5.37l-21.47,36.79,32.39,35.08M598.51,71.9c-9.96,0-15.71,6.33-15.71,14.76,0,6.52,3.45,12.27,11.31,20.7,13.61-7.86,19.36-12.65,19.36-21.08,0-7.86-4.98-14.38-14.95-14.38M589.89,184.22c12.26,0,20.5-5.94,27.21-16.1l-31.04-33.36c-11.89,6.71-19.56,13.42-19.56,26.84s10.73,22.62,23.39,22.62M441.01,199.94c.96,2.5-.58,4.99-3.26,4.99h-19.93c-2.87,0-4.6-1.34-5.56-4.03l-11.31-32.58h-61.9l-11.32,32.58c-.95,2.69-2.68,4.03-5.56,4.03h-18.78c-2.49,0-4.22-2.49-3.26-4.99l51.94-144.52c.96-2.69,2.69-3.83,5.56-3.83h25.69c2.87,0,4.79,1.14,5.75,3.83l51.94,144.52M392.13,143.21l-22.04-63.25-22.24,63.25h44.28ZM713.71,204.92c-2.49,0-4.21-1.73-4.21-4.22v-123.63h-41.98c-2.49,0-4.21-1.72-4.21-4.22v-17.05c0-2.5,1.72-4.22,4.21-4.22h111.75c2.49,0,4.21,1.73,4.21,4.22v17.05c0,2.49-1.72,4.22-4.21,4.22h-41.98v123.63c0,2.49-1.73,4.22-4.22,4.22h-19.36Z"/>
    <g>
      <path class="cls-1" d="M1210.46,90.12h-19.36c-2.49,0-4.21,1.73-4.21,4.22v106.35c0,2.49,1.72,4.22,4.21,4.22h19.36c2.49,0,4.21-1.73,4.21-4.22v-106.35c0-2.49-1.72-4.22-4.21-4.22Z"/>
      <path class="cls-1" d="M1061.21,90.12h-19.36c-2.49,0-4.21,1.73-4.21,4.22v63.57c0,19.09-15.32,26.2-24.95,26.2-7.59,0-13.25-2.08-16.97-6.24-3.72-4.16-5.58-10.54-5.58-19.16v-64.37c0-2.49-1.72-4.22-4.21-4.22h-19.36c-2.49,0-4.21,1.73-4.21,4.22v67.37c0,14.6,3.29,25.83,9.85,33.72,6.57,7.88,19.83,11.82,31.94,11.82,7.01,0,14.26-.66,20.39-3.07,6.13-2.41,9.63-4.64,13.11-7.53v4.05c0,2.49,1.72,4.22,4.21,4.22h19.36c2.49,0,4.21-1.73,4.21-4.22v-106.35c0-2.49-1.72-4.22-4.21-4.22Z"/>
      <path class="cls-1" d="M919.09,126.46c7.74-2.63,12.77-7.04,17.22-13.25,4.45-6.2,6.68-13.39,6.68-21.56,0-12.99-4.38-22.92-13.13-29.78-8.76-6.86-21.46-10.29-38.09-10.29h-56.32c-2.49-.01-4.21,1.72-4.21,4.21v144.91c0,2.49,1.72,4.22,4.21,4.22l60.62-.09c10.21,0,19.19-1.68,26.93-5.04,7.74-3.35,13.75-8.24,18.06-14.67,4.3-6.42,6.46-13.94,6.46-22.55,0-9.63-2.56-17.59-7.66-23.86-5.11-6.28-11.27-10.36-20.76-12.26ZM859.02,77.08h31.61c10.24,0,14.89,1.63,18.76,4.87,3.87,3.25,5.81,7.94,5.81,14.06s-1.97,10.87-5.9,14.24c-3.94,3.37-9.55,5.06-18.67,5.06h-31.61v-38.24ZM913.87,174.14c-3.9,3.4-8.88,5.1-18.32,5.1h-36.53v-38.6h34.31c11.83,0,16.19,1.64,20.27,4.92,4.08,3.28,6.12,8.07,6.12,14.38s-1.95,10.79-5.85,14.2Z"/>
      <path class="cls-1" d="M1438.41,93.74c-7.69-4.85-16.8-7.31-27.07-7.31s-19.44,2.57-27.71,7.63c-8.26,5.06-14.97,12.33-19.94,21.61-4.96,9.26-7.48,20.03-7.48,32.02s2.41,22.02,7.15,31.13c4.76,9.15,11.66,16.46,20.51,21.75,8.84,5.27,19.26,7.95,30.98,7.95,8.54,0,16.35-.9,23.19-2.66,5.71-1.48,11.46-3.74,17.14-6.75l.7-.39c2.22-1.13,2.97-3.44,1.84-5.67l-.2-.38-6.42-12.57-.11-.22c-1.13-2.23-3.44-2.99-5.66-1.86l-.43.24c-4.06,2.25-8.47,3.95-11.73,4.87-4.6,1.3-9.72,2.39-15.64,2.39-9.3,0-16.91-2.47-22.65-7.35-5.43-4.62-8.93-11.2-10.41-19.55h73.37c2.49,0,4.21-1.72,4.21-4.22l.09-2.38c.12-2.98.18-7.37.18-10.03,0-10.51-2.07-20.05-6.15-28.37-4.11-8.35-10.08-15.05-17.76-19.89ZM1384.5,135.17c1.44-8,4.51-14.46,9.14-19.21,4.83-4.96,10.86-7.48,17.92-7.48,7.54,0,13.28,2.43,17.56,7.42,4.19,4.91,6.35,11.39,6.42,19.27h-51.04Z"/>
      <path class="cls-1" d="M1200.9,48.15c-4.68,0-8.43,1.37-11.23,4.1-2.81,2.73-4.22,6.28-4.22,10.65s1.4,7.92,4.22,10.65c2.81,2.73,6.55,4.09,11.23,4.09s8.19-1.36,11-4.09c2.81-2.73,4.21-6.28,4.21-10.65s-1.4-7.92-4.21-10.65c-2.81-2.73-6.47-4.1-11-4.1Z"/>
      <path class="cls-1" d="M1086.94,179.37c.67-2.08,2.66-2.88,4.66-2.13l1.66.7c10.94,4.48,21.04,7.67,31.02,7.67,14.46,0,21.49-4.16,21.49-12.73,0-3.4-1.26-6-3.86-7.95-2.77-2.08-8.15-4.14-15.97-6.13l-6.58-1.75c-12.13-3.25-20.98-7.6-26.3-12.92-5.41-5.41-8.15-12.82-8.15-22.03,0-10.58,4.14-19.27,12.3-25.85,8.08-6.51,18.96-9.81,32.33-9.81,11.7,0,23.49,2.55,35.1,7.59l.63.27c2.27.89,3.4,3.03,2.59,5.39l-.07.25-3.52,11.97-.19.62c-.72,2.39-2.86,3.54-5.24,2.83l-.93-.38c-9.3-3.73-18.68-5.62-27.94-5.62-5.98,0-10.68,1.1-13.96,3.29-3.15,2.1-4.68,4.9-4.68,8.57,0,3.25,1.08,5.64,3.31,7.29,2.41,1.79,7.09,3.63,13.91,5.48l6.56,1.75c13.14,3.54,22.68,8.11,28.36,13.56,5.78,5.55,8.71,13.12,8.71,22.49,0,11.31-4.25,20.37-12.64,26.95-8.29,6.5-19.64,9.79-33.74,9.79s-28.38-3.14-40.95-9.35l-.45-.22c-1.96-.9-2.79-2.53-2.12-4.66l.12-.4,4.29-13.72.24-.8Z"/>
      <path class="cls-1" d="M1478.34,179.37c.67-2.08,2.66-2.88,4.66-2.13l1.66.7c10.94,4.48,21.04,7.67,31.02,7.67,14.46,0,21.49-4.16,21.49-12.73,0-3.4-1.26-6-3.86-7.95-2.77-2.08-8.15-4.14-15.97-6.13l-6.58-1.75c-12.13-3.25-20.98-7.6-26.3-12.92-5.41-5.41-8.15-12.82-8.15-22.03,0-10.58,4.14-19.27,12.3-25.85,8.08-6.51,18.96-9.81,32.33-9.81,11.7,0,23.49,2.55,35.1,7.59l.63.27c2.27.89,3.4,3.03,2.59,5.39l-.07.25-3.52,11.97-.19.62c-.72,2.39-2.86,3.54-5.24,2.83l-.93-.38c-9.3-3.73-18.68-5.62-27.94-5.62-5.98,0-10.68,1.1-13.96,3.29-3.15,2.1-4.68,4.9-4.68,8.57,0,3.25,1.08,5.64,3.31,7.29,2.41,1.79,7.09,3.63,13.91,5.48l6.56,1.75c13.14,3.54,22.68,8.11,28.36,13.56,5.78,5.55,8.71,13.12,8.71,22.49,0,11.31-4.25,20.37-12.64,26.95-8.29,6.5-19.64,9.79-33.74,9.79s-28.38-3.14-40.95-9.35l-.45-.22c-1.96-.9-2.79-2.53-2.12-4.66l.12-.4,4.29-13.72.24-.8Z"/>
      <path class="cls-1" d="M1578.55,179.62c.67-2.08,2.66-2.88,4.66-2.13l1.66.7c10.94,4.48,21.04,7.67,31.02,7.67,14.46,0,21.49-4.16,21.49-12.73,0-3.4-1.26-6-3.86-7.95-2.77-2.08-8.15-4.14-15.97-6.13l-6.58-1.75c-12.13-3.25-20.98-7.6-26.3-12.92-5.41-5.41-8.15-12.82-8.15-22.03,0-10.58,4.14-19.27,12.3-25.85,8.08-6.51,18.96-9.81,32.33-9.81,11.7,0,23.49,2.55,35.1,7.59l.63.27c2.27.89,3.4,3.03,2.59,5.39l-.07.25-3.52,11.97-.19.62c-.72,2.39-2.86,3.54-5.24,2.83l-.93-.38c-9.3-3.73-18.68-5.62-27.94-5.62-5.98,0-10.68,1.1-13.96,3.29-3.15,2.1-4.68,4.9-4.68,8.57,0,3.25,1.08,5.64,3.31,7.29,2.41,1.79,7.09,3.63,13.91,5.48l6.56,1.75c13.14,3.54,22.68,8.11,28.36,13.56,5.78,5.55,8.71,13.12,8.71,22.49,0,11.31-4.25,20.37-12.64,26.95-8.29,6.5-19.64,9.79-33.74,9.79s-28.38-3.14-40.95-9.35l-.45-.22c-1.96-.9-2.79-2.53-2.12-4.66l.12-.4,4.29-13.72.24-.8Z"/>
      <path class="cls-1" d="M1298.49,87.8c-7.01,0-14.26.66-20.39,3.07-6.13,2.41-9.63,4.64-13.11,7.53v-4.05c0-2.49-1.72-4.22-4.21-4.22h-19.36c-2.49,0-4.21,1.73-4.21,4.22v106.35c0,2.49,1.72,4.22,4.21,4.22h19.36c2.49,0,4.21-1.73,4.21-4.22v-63.57c0-19.09,15.32-26.2,24.95-26.2,7.59,0,13.25,2.08,16.97,6.24,3.72,4.16,5.58,10.54,5.58,19.16v64.37c0,2.49,1.72,4.22,4.21,4.22h19.36c2.49,0,4.21-1.73,4.21-4.22v-67.37c0-14.6-3.29-25.83-9.85-33.72-6.57-7.88-19.83-11.82-31.94-11.82Z"/>
    </g>
  </g>
  <path class="cls-2" d="M193.47,18.05C174.29,6.54,152.02,0,128,0s-47.13,6.78-66.38,18.58c-5.77,3.55-9.02,6.41-9.02,10.06,0,10.8,25.22,22.41,69.97,22.41s78.63-12.72,78.63-24.96c0-2.92-2.55-4.97-7.72-8.05M212.53,32.27c.54.84.81,1.74.81,2.95,0,14.22-43.51,39.38-112.77,39.38-50.89,0-60.41-18.89-60.41-30.9,0-4.29,1.64-8.69,5.27-13.15.2-.27.03-.37-.2-.17-6.61,5.6-12.68,11.91-18.01,18.72-2.55,3.22-4.13,6.07-4.13,7.78,0,24.89,62.39,42.94,120.72,42.94,62.15,0,89.9-20.29,89.9-38.14,0-6.38-2.48-10.1-8.82-17.31-4.12-4.7-8.02-8.52-12.14-12.28-.2-.16-.34-.03-.2.17M12.34,73.09c-3.75,7.45-7.91,20.02-9.15,26.53-.54,2.79-.31,4.13.67,6.21,7.85,16.67,47.57,43.34,140.21,43.34,56.52,0,100.43-13.89,107.54-39.24,1.31-4.67,1.38-9.6-.3-16.24-1.88-7.42-5.4-16.07-8.38-22.14-.1-.2-.27-.17-.24.07,1.11,33.24-91.57,54.68-138.33,54.68-50.65,0-92.91-20.19-92.91-45.69,0-2.45.5-4.9,1.14-7.45.06-.23-.14-.27-.24-.07M102.28,179.32C36.77,179.32,5.87,148.8.27,127.96c-.07-.3-.27-.23-.27.04,0,7.01.7,16.07,1.91,22.07.57,2.92,2.95,7.51,6.44,11.17,15.87,16.54,55.41,39.72,123.91,39.72,93.32,0,114.65-31.09,119.01-41.32,3.12-7.31,4.73-20.53,4.73-31.63,0-2.69-.07-4.83-.17-6.94,0-.34-.2-.37-.26-.04-4.66,25.03-84.4,58.3-153.29,58.3M136.69,235.64c31.5,0,66.11-8.59,86.81-25.59,5.67-4.63,11.06-10.8,15.9-19.08,2.78-4.76,5.5-10.43,7.72-16,.1-.27-.07-.4-.27-.1-19.25,28.34-75,46.02-132.56,46.02-40.69,0-84.46-13.01-101.6-37.87-.17-.23-.34-.13-.24.14,15.97,33.94,64.4,52.5,124.24,52.5M49.51,229.1c21.7,16.81,48.94,26.9,78.49,26.9,32.34,0,61.82-12.01,84.32-31.73.27-.24.14-.4-.13-.24-10.1,6.74-38.88,21.47-84.19,21.47-39.38,0-64.27-8.79-78.33-16.64-.27-.13-.37.07-.16.23"/>
</svg>