<svg xmlns="http://www.w3.org/2000/svg" width="24" height="24" viewBox="0 0 24 24" fill="none"><path d="M13.7173 3.08616C13.1251 2.26753 12.1811 1.96333 10.9624 2.11257C10.0995 2.21824 9.45117 2.7172 8.99225 3.41858C8.52147 4.1381 8.30067 5.00357 8.29862 5.64421C8.29747 6.00181 8.10547 6.33157 7.79505 6.50909C7.48463 6.68661 7.10305 6.68486 6.79427 6.5045C6.40815 6.27898 5.67937 6.0393 4.86548 5.98891C4.05151 5.93851 3.30722 6.08603 2.78604 6.45626C2.41563 6.71939 2.1571 7.30736 2.20266 8.22902C2.2469 9.1241 2.5771 10.0653 3.01851 10.6784C3.09295 10.7818 3.1448 10.8946 3.17502 11.011C3.26376 11.0037 3.35376 11 3.44494 11H13.0005V10.7374C13.0005 10.7373 13.0005 10.7374 13.0005 10.7374C13 8.6362 13.7645 6.72519 14.939 5.33015C16.1057 3.94434 17.7411 3.00084 19.5 3.00003H22.0005C22.5528 3.00003 23.0005 3.44775 23.0005 4.00003V6.28574C23.0005 7.5766 22.7311 9.22247 21.8346 10.5781C21.7104 10.7658 21.5752 10.9464 21.4286 11.1183C22.9684 11.5482 24.0005 13.0901 24.0005 14.75L24.0005 14.8059C24.0006 15.6568 24.0007 16.4514 23.7878 17.3101C23.5668 18.2014 23.1353 19.1005 22.3659 20.2547C21.1406 22.0926 19.0337 23.0009 17.1046 23.4659C15.1491 23.9374 13.1811 24 12.0005 24H11.9765C10.826 24.0001 8.9014 24.0001 6.97219 23.5628C5.03564 23.1238 2.93839 22.2097 1.63511 20.2547C0.865649 19.1005 0.434231 18.2014 0.213224 17.3101C0.000296474 16.4514 0.000391364 15.6568 0.000492692 14.8059L0.000497222 14.75C0.000497222 13.5853 0.508589 12.4788 1.34362 11.7737C0.689018 10.8297 0.265302 9.54573 0.205097 8.32776C0.144633 7.10456 0.448781 5.66331 1.62779 4.82578C2.65602 4.09535 3.91556 3.92627 4.98907 3.99273C5.50615 4.02475 6.01599 4.1134 6.48359 4.24226C6.64825 3.59202 6.92447 2.92601 7.31866 2.32355C8.01869 1.25366 9.13879 0.320958 10.7193 0.127399C12.3923 -0.0774744 14.1807 0.314454 15.3377 1.91393C15.6614 2.3614 15.5611 2.98657 15.1136 3.31027C14.6661 3.63397 14.041 3.53364 13.7173 3.08616ZM17.0005 11C18.6669 11 19.6027 10.3272 20.1664 9.47481C20.7699 8.56227 21.0005 7.351 21.0005 6.28574V5.00003H19.501C18.4701 5.0005 17.3551 5.56574 16.469 6.61824C15.5907 7.66146 15.0001 9.1185 15.0005 10.7368V11H17.0005ZM3.44494 13C2.75467 13 2.0005 13.6696 2.0005 14.75C2.0005 15.663 2.00535 16.2275 2.15444 16.8288C2.3001 17.4162 2.60201 18.0995 3.29921 19.1453C4.19593 20.4904 5.71124 21.2262 7.41431 21.6123C9.11122 21.9969 10.8399 22 12.0005 22C13.1281 22 14.9102 21.9377 16.6359 21.5216C18.3881 21.0992 19.8937 20.3575 20.7018 19.1453C21.399 18.0995 21.7009 17.4162 21.8466 16.8288C21.9956 16.2275 22.0005 15.663 22.0005 14.75C22.0005 13.6695 21.2463 13 20.5561 13H3.44494Z" fill="currentColor"/></svg>
