<?xml version="1.0" encoding="utf-8"?>
<!-- Generator: Adobe Illustrator 27.1.1, SVG Export Plug-In . SVG Version: 6.00 Build 0)  -->
<svg version="1.1" id="Icon__x28_Outlined_x29_" xmlns="http://www.w3.org/2000/svg" xmlns:xlink="http://www.w3.org/1999/xlink"
	 x="0px" y="0px" viewBox="0 0 32 32" style="enable-background:new 0 0 32 32;" xml:space="preserve">
<style type="text/css">
	.st0{fill:#009FDB;}
</style>
<g>
	<path class="st0" d="M28,6H4C2.3,6,1,7.3,1,9v15c0,1.7,1.3,3,3,3h24c1.7,0,3-1.3,3-3V9C31,7.3,29.7,6,28,6z M29,24c0,0.6-0.4,1-1,1
		H4c-0.6,0-1-0.4-1-1V9c0-0.6,0.4-1,1-1h24c0.6,0,1,0.4,1,1V24z"/>
	<path class="st0" d="M5,21h4v2h14v-2h4V10H5V21z M7,12h2v3h2v-3h2v3h2v-3h2v3h2v-3h2v3h2v-3h2v7h-4v2H11v-2H7V12z"/>
</g>
</svg>
