<?xml version="1.0" encoding="utf-8"?>
<!-- Generator: Adobe Illustrator 27.1.1, SVG Export Plug-In . SVG Version: 6.00 Build 0)  -->
<svg version="1.1" id="Icon__x28_Outlined_x29_" xmlns="http://www.w3.org/2000/svg" xmlns:xlink="http://www.w3.org/1999/xlink"
	 x="0px" y="0px" viewBox="0 0 32 32" style="enable-background:new 0 0 32 32;" xml:space="preserve">
<style type="text/css">
	.st0{fill:#009FDB;}
</style>
<g>
	<g>
		<path class="st0" d="M22,31H10c-1.7,0-3-1.3-3-3V4c0-1.7,1.3-3,3-3h12c1.7,0,3,1.3,3,3v24C25,29.7,23.7,31,22,31z M10,3
			C9.4,3,9,3.4,9,4v24c0,0.6,0.4,1,1,1h12c0.6,0,1-0.4,1-1V4c0-0.6-0.4-1-1-1H10z"/>
	</g>
	<g>
		<rect x="13" y="5" class="st0" width="6" height="2"/>
	</g>
</g>
</svg>
